<svg width="49" height="48" viewBox="0 0 49 48" fill="none" xmlns="http://www.w3.org/2000/svg">
<path d="M23.8035 10.0013C20.2326 10.0506 17.3661 13.0244 17.4156 16.6105C17.4469 18.8791 18.6395 20.8661 20.4148 22.0094C18.2999 22.7491 16.4798 24.1023 15.1554 25.8579C14.402 25.2948 13.5626 24.8451 12.6601 24.5271C14.0079 23.4973 14.8753 21.8611 14.8501 20.0359C14.8081 16.9944 12.3139 14.5386 9.29083 14.5803C6.2678 14.6221 3.84235 17.1459 3.88435 20.1873C3.90958 22.0135 4.82263 23.626 6.19947 24.6181C2.60963 25.9994 0.0808134 29.521 0.137476 33.6236L0.177279 36.5055C0.180682 36.7252 0.271468 36.9345 0.429422 37.087C0.58738 37.2399 0.799412 37.3234 1.0191 37.3197L13.6629 37.145C13.6936 37.1479 13.7242 37.1494 13.7549 37.1486L34.5987 36.8607C34.6294 36.8606 34.6604 36.8584 34.6906 36.8546L47.3353 36.68C47.7898 36.6719 48.1529 36.2979 48.1477 35.843L48.1079 32.9611C48.0512 28.8585 45.4305 25.408 41.8058 24.1259C43.1547 23.0965 44.0229 21.4592 43.9977 19.6329C43.9557 16.5915 41.4614 14.1356 38.4384 14.1774C35.4155 14.2191 32.9899 16.7429 33.0319 19.7844C33.0571 21.6096 33.9698 23.2215 35.3455 24.2134C34.4503 24.557 33.6233 25.0312 32.8846 25.6163C31.5129 23.8969 29.6586 22.5927 27.5243 21.9112C29.2668 20.7193 30.4045 18.7001 30.3732 16.4315C30.3237 12.8454 27.3746 9.95196 23.8037 10.0013L23.8035 10.0013ZM23.8263 11.6555C26.4971 11.6186 28.68 13.7563 28.7173 16.4544C28.7542 19.1313 26.6644 21.307 24.0238 21.3779C24.0027 21.3782 23.982 21.3755 23.9606 21.3758C23.9392 21.3761 23.9189 21.3793 23.8975 21.3796C21.2559 21.3821 19.1082 19.2647 19.0712 16.5876C19.0339 13.8892 21.1552 11.6924 23.826 11.6555L23.8263 11.6555ZM9.31377 16.2344C11.4328 16.2052 13.1662 17.9014 13.196 20.0586C13.2256 22.2013 11.5618 23.9372 9.46295 23.9894C9.44892 23.9896 9.43523 23.9883 9.42083 23.9885C9.4068 23.9887 9.39316 23.9904 9.37876 23.9906C7.27931 23.9963 5.56818 22.3067 5.53859 20.1644C5.5088 18.0073 7.19463 16.2637 9.31371 16.2344L9.31377 16.2344ZM38.4608 15.8319C40.5798 15.8026 42.3132 17.4989 42.343 19.6561C42.3726 21.7988 40.7088 23.5346 38.6099 23.5868C38.5959 23.587 38.5822 23.5857 38.5678 23.5859C38.5538 23.5861 38.5402 23.5878 38.5258 23.588C36.4263 23.5937 34.7152 21.9041 34.6856 19.7618C34.6558 17.6047 36.3416 15.8611 38.4607 15.8319L38.4608 15.8319ZM23.9201 23.0338C23.9412 23.0338 23.9619 23.0361 23.9833 23.0358C24.0044 23.0355 24.025 23.0323 24.0464 23.032C29.3436 22.9928 33.6417 27.2097 33.7156 32.5618L33.7519 35.2174L14.5556 35.4825L14.519 32.8269C14.445 27.4744 18.6238 23.1409 23.9194 23.0338L23.9201 23.0338ZM9.38042 25.6469C9.40148 25.647 9.42219 25.6493 9.4436 25.649C9.46502 25.6487 9.48529 25.6455 9.5067 25.6452C11.2984 25.6349 12.942 26.23 14.2582 27.2455C13.3493 28.9067 12.8369 30.8168 12.8649 32.8502L12.9015 35.4995L1.81935 35.6526L1.79101 33.6007C1.73093 29.251 5.10303 25.74 9.38022 25.6466L9.38042 25.6469ZM38.5274 25.2444C38.5488 25.2445 38.5692 25.2468 38.5906 25.2465C38.612 25.2462 38.6323 25.2429 38.6537 25.2426C42.9318 25.2175 46.3996 28.6345 46.4597 32.9841L46.488 35.0356L35.4002 35.1888L35.3632 32.5395C35.3351 30.5072 34.7716 28.6134 33.8191 26.9783C35.1071 25.9253 36.7347 25.2835 38.5275 25.2444L38.5274 25.2444Z" fill="#103E13"/>
</svg>
