<svg width="58" height="48" viewBox="0 0 58 48" fill="none" xmlns="http://www.w3.org/2000/svg">
<path d="M42.9164 25.0109C42.6044 25.0109 42.3507 24.7576 42.3507 24.4452V23.4839C42.3507 23.1719 42.604 22.9182 42.9164 22.9182C43.2284 22.9182 43.4821 23.1715 43.4821 23.4839V24.4452C43.4821 24.7576 43.2284 25.0109 42.9164 25.0109Z" fill="#103E13"/>
<path d="M40.5381 25.0109C40.2261 25.0109 39.9724 24.7576 39.9724 24.4452V23.4839C39.9724 23.1719 40.2257 22.9182 40.5381 22.9182C40.8501 22.9182 41.1038 23.1715 41.1038 23.4839V24.4452C41.1034 24.7576 40.8505 25.0109 40.5381 25.0109Z" fill="#103E13"/>
<path d="M38.16 25.0109C37.848 25.0109 37.5944 24.7576 37.5944 24.4452V23.4839C37.5944 23.1719 37.8476 22.9182 38.16 22.9182C38.4721 22.9182 38.7257 23.1715 38.7257 23.4839V24.4452C38.7257 24.7576 38.4725 25.0109 38.16 25.0109Z" fill="#103E13"/>
<path d="M42.9164 28.9421C42.6044 28.9421 42.3507 28.6888 42.3507 28.3764V27.4155C42.3507 27.1034 42.604 26.8498 42.9164 26.8498C43.2284 26.8498 43.4821 27.103 43.4821 27.4155V28.3764C43.4821 28.6888 43.2284 28.9421 42.9164 28.9421Z" fill="#103E13"/>
<path d="M40.5381 28.9421C40.2261 28.9421 39.9724 28.6888 39.9724 28.3764V27.4155C39.9724 27.1034 40.2257 26.8498 40.5381 26.8498C40.8501 26.8498 41.1038 27.103 41.1038 27.4155V28.3764C41.1034 28.6888 40.8505 28.9421 40.5381 28.9421Z" fill="#103E13"/>
<path d="M38.16 28.9421C37.848 28.9421 37.5944 28.6888 37.5944 28.3764V27.4155C37.5944 27.1034 37.8476 26.8498 38.16 26.8498C38.4721 26.8498 38.7257 27.103 38.7257 27.4155V28.3764C38.7257 28.6888 38.4725 28.9421 38.16 28.9421Z" fill="#103E13"/>
<path d="M42.9164 32.8733C42.6044 32.8733 42.3507 32.6201 42.3507 32.3076V31.3463C42.3507 31.0343 42.604 30.7806 42.9164 30.7806C43.2284 30.7806 43.4821 31.0339 43.4821 31.3463V32.3076C43.4821 32.6201 43.2284 32.8733 42.9164 32.8733Z" fill="#103E13"/>
<path d="M40.5381 32.8733C40.2261 32.8733 39.9724 32.6201 39.9724 32.3076V31.3463C39.9724 31.0343 40.2257 30.7806 40.5381 30.7806C40.8501 30.7806 41.1038 31.0339 41.1038 31.3463V32.3076C41.1034 32.6201 40.8505 32.8733 40.5381 32.8733Z" fill="#103E13"/>
<path d="M38.16 32.8733C37.848 32.8733 37.5944 32.6201 37.5944 32.3076V31.3463C37.5944 31.0343 37.8476 30.7806 38.16 30.7806C38.4721 30.7806 38.7257 31.0339 38.7257 31.3463V32.3076C38.7257 32.6201 38.4725 32.8733 38.16 32.8733Z" fill="#103E13"/>
<path d="M42.9164 36.8038C42.6044 36.8038 42.3507 36.5505 42.3507 36.2381V35.2768C42.3507 34.9648 42.604 34.7111 42.9164 34.7111C43.2284 34.7111 43.4821 34.9644 43.4821 35.2768V36.2381C43.4821 36.5505 43.2284 36.8038 42.9164 36.8038Z" fill="#103E13"/>
<path d="M40.5381 36.8038C40.2261 36.8038 39.9724 36.5505 39.9724 36.2381V35.2768C39.9724 34.9648 40.2257 34.7111 40.5381 34.7111C40.8501 34.7111 41.1038 34.9644 41.1038 35.2768V36.2381C41.1034 36.5505 40.8505 36.8038 40.5381 36.8038Z" fill="#103E13"/>
<path d="M38.16 36.8038C37.848 36.8038 37.5944 36.5505 37.5944 36.2381V35.2768C37.5944 34.9648 37.8476 34.7111 38.16 34.7111C38.4721 34.7111 38.7257 34.9644 38.7257 35.2768V36.2381C38.7257 36.5505 38.4725 36.8038 38.16 36.8038Z" fill="#103E13"/>
<path d="M42.9164 40.735C42.6044 40.735 42.3507 40.4817 42.3507 40.1693V39.2084C42.3507 38.8964 42.604 38.6427 42.9164 38.6427C43.2284 38.6427 43.4821 38.896 43.4821 39.2084V40.1693C43.4821 40.4813 43.2284 40.735 42.9164 40.735Z" fill="#103E13"/>
<path d="M40.5381 40.735C40.2261 40.735 39.9724 40.4817 39.9724 40.1693V39.2084C39.9724 38.8964 40.2257 38.6427 40.5381 38.6427C40.8501 38.6427 41.1038 38.896 41.1038 39.2084V40.1693C41.1034 40.4813 40.8505 40.735 40.5381 40.735Z" fill="#103E13"/>
<path d="M38.16 40.735C37.848 40.735 37.5944 40.4817 37.5944 40.1693L37.5948 39.2084C37.5948 38.8964 37.848 38.6427 38.1604 38.6427C38.4725 38.6427 38.7261 38.896 38.7261 39.2084V40.1693C38.7257 40.4813 38.4725 40.735 38.16 40.735Z" fill="#103E13"/>
<path d="M22.0005 44.6471C22.0005 44.9592 22.2537 45.2128 22.5661 45.2128H57.0139C57.3259 45.2128 57.5796 44.9596 57.5796 44.6471C57.5796 44.3351 57.3263 44.0815 57.0139 44.0815H55.9682V27.8402C55.9682 27.5281 55.715 27.2745 55.4025 27.2745L46.1668 27.2749V15.5658C46.1668 15.3677 46.0635 15.1847 45.8946 15.0821C45.7262 14.9792 45.5156 14.9729 45.3404 15.064L34.8401 20.531C34.6527 20.6284 34.5359 20.8217 34.5359 21.0327V31.2604H24.3739C24.0619 31.2604 23.8082 31.5137 23.8082 31.8261V44.0816H22.5649C22.2529 44.0812 22 44.3344 22 44.6468L22.0005 44.6471ZM46.167 35.8422H54.8374V44.0819L46.167 44.0815V35.8422ZM46.167 31.9113H54.8374V34.7113L46.167 34.7109V31.9113ZM46.167 28.4056H54.8374V30.7808H46.167V28.4056ZM35.6667 21.3762L45.0353 16.4982V44.081H35.6667V21.3762ZM27.7359 39.5635C27.7359 38.3895 28.666 37.4341 29.8096 37.4341C30.9531 37.4341 31.8837 38.3891 31.8837 39.5635V44.0817H27.7359V39.5635ZM24.9395 32.3916H34.5358V44.0815H33.015V39.5633C33.015 37.7657 31.5776 36.303 29.8096 36.303C28.0424 36.303 26.605 37.7653 26.605 39.5633V44.0815H24.9395V32.3916Z" fill="#103E13"/>
</svg>
