<svg width="65" height="58" viewBox="0 0 65 58" fill="none" xmlns="http://www.w3.org/2000/svg">
<path d="M58 33C58 42.9411 49.9411 51 40 51L5 51C2.23857 51 -3.61899e-06 48.7614 -3.37758e-06 46L-2.30364e-07 10C2.52459e-07 4.47715 4.47715 -8.64419e-07 10 -3.81596e-07L53 3.37758e-06C55.7614 3.61899e-06 58 2.23858 58 5L58 33Z" fill="#E8F5E9"/>
<path d="M28.8035 11.0013C25.2326 11.0506 22.3661 14.0244 22.4156 17.6105C22.4469 19.8791 23.6395 21.8661 25.4148 23.0094C23.2999 23.7491 21.4798 25.1023 20.1554 26.8579C19.402 26.2948 18.5626 25.8451 17.6601 25.5271C19.0079 24.4973 19.8753 22.8611 19.8501 21.0359C19.8081 17.9944 17.3139 15.5386 14.2908 15.5803C11.2678 15.6221 8.84235 18.1459 8.88435 21.1873C8.90958 23.0135 9.82263 24.626 11.1995 25.6181C7.60963 26.9994 5.08081 30.521 5.13748 34.6236L5.17728 37.5055C5.18068 37.7252 5.27147 37.9345 5.42942 38.087C5.58738 38.2399 5.79941 38.3234 6.0191 38.3197L18.6629 38.145C18.6936 38.1479 18.7242 38.1494 18.7549 38.1486L39.5987 37.8607C39.6294 37.8606 39.6604 37.8584 39.6906 37.8546L52.3353 37.68C52.7898 37.6719 53.1529 37.2979 53.1477 36.843L53.1079 33.9611C53.0512 29.8585 50.4305 26.408 46.8058 25.1259C48.1547 24.0965 49.0229 22.4592 48.9977 20.6329C48.9557 17.5915 46.4614 15.1356 43.4384 15.1774C40.4155 15.2191 37.9899 17.7429 38.0319 20.7844C38.0571 22.6096 38.9698 24.2215 40.3455 25.2134C39.4503 25.557 38.6233 26.0312 37.8846 26.6163C36.5129 24.8969 34.6586 23.5927 32.5243 22.9112C34.2668 21.7193 35.4045 19.7001 35.3732 17.4315C35.3237 13.8454 32.3746 10.952 28.8037 11.0013L28.8035 11.0013ZM28.8263 12.6555C31.4971 12.6186 33.68 14.7563 33.7173 17.4544C33.7542 20.1313 31.6644 22.307 29.0238 22.3779C29.0027 22.3782 28.982 22.3755 28.9606 22.3758C28.9392 22.3761 28.9189 22.3793 28.8975 22.3796C26.2559 22.3821 24.1082 20.2647 24.0712 17.5876C24.0339 14.8892 26.1552 12.6924 28.826 12.6555L28.8263 12.6555ZM14.3138 17.2344C16.4328 17.2052 18.1662 18.9014 18.196 21.0586C18.2256 23.2013 16.5618 24.9372 14.4629 24.9894C14.4489 24.9896 14.4352 24.9883 14.4208 24.9885C14.4068 24.9887 14.3932 24.9904 14.3788 24.9906C12.2793 24.9963 10.5682 23.3067 10.5386 21.1644C10.5088 19.0073 12.1946 17.2637 14.3137 17.2344L14.3138 17.2344ZM43.4608 16.8319C45.5798 16.8026 47.3132 18.4989 47.343 20.6561C47.3726 22.7988 45.7088 24.5346 43.6099 24.5868C43.5959 24.587 43.5822 24.5857 43.5678 24.5859C43.5538 24.5861 43.5402 24.5878 43.5258 24.588C41.4263 24.5937 39.7152 22.9041 39.6856 20.7618C39.6558 18.6047 41.3416 16.8611 43.4607 16.8319L43.4608 16.8319ZM28.9201 24.0338C28.9412 24.0338 28.9619 24.0361 28.9833 24.0358C29.0044 24.0355 29.025 24.0323 29.0464 24.032C34.3436 23.9928 38.6417 28.2097 38.7156 33.5618L38.7519 36.2174L19.5556 36.4825L19.519 33.8269C19.445 28.4744 23.6238 24.1409 28.9194 24.0338L28.9201 24.0338ZM14.3804 26.6469C14.4015 26.647 14.4222 26.6493 14.4436 26.649C14.465 26.6487 14.4853 26.6455 14.5067 26.6452C16.2984 26.6349 17.942 27.23 19.2582 28.2455C18.3493 29.9067 17.8369 31.8168 17.8649 33.8502L17.9015 36.4995L6.81935 36.6526L6.79101 34.6007C6.73093 30.251 10.103 26.74 14.3802 26.6466L14.3804 26.6469ZM43.5274 26.2444C43.5488 26.2445 43.5692 26.2468 43.5906 26.2465C43.612 26.2462 43.6323 26.2429 43.6537 26.2426C47.9318 26.2175 51.3996 29.6345 51.4597 33.9841L51.488 36.0356L40.4002 36.1888L40.3632 33.5395C40.3351 31.5072 39.7716 29.6134 38.8191 27.9783C40.1071 26.9253 41.7347 26.2835 43.5275 26.2444L43.5274 26.2444Z" fill="#103E13"/>
</svg>
